<?xml version="1.0" encoding="UTF-8" standalone="no"?>
<!DOCTYPE svg PUBLIC "-//W3C//DTD SVG 1.1//EN"
 "http://www.w3.org/Graphics/SVG/1.1/DTD/svg11.dtd">
<!-- Generated by graphviz version 2.43.0 (0)
 -->
<!-- Title: %3 Pages: 1 -->
<svg width="3274pt" height="692pt"
 viewBox="0.00 0.00 3274.00 692.00" xmlns="http://www.w3.org/2000/svg" xmlns:xlink="http://www.w3.org/1999/xlink">
<g id="graph0" class="graph" transform="scale(1 1) rotate(0) translate(4 688)">
<title>%3</title>
<polygon fill="white" stroke="transparent" points="-4,4 -4,-688 3270,-688 3270,4 -4,4"/>
<!-- [root] aws_appautoscaling_policy.cpu (expand) -->
<g id="node1" class="node">
<title>[root] aws_appautoscaling_policy.cpu (expand)</title>
<polygon fill="none" stroke="black" points="1998,-540 1762,-540 1762,-504 1998,-504 1998,-540"/>
<text text-anchor="middle" x="1880" y="-518.3" font-family="Times,serif" font-size="14.00">aws_appautoscaling_policy.cpu</text>
</g>
<!-- [root] aws_appautoscaling_target.ecs_target (expand) -->
<g id="node2" class="node">
<title>[root] aws_appautoscaling_target.ecs_target (expand)</title>
<polygon fill="none" stroke="black" points="2071.5,-468 1782.5,-468 1782.5,-432 2071.5,-432 2071.5,-468"/>
<text text-anchor="middle" x="1927" y="-446.3" font-family="Times,serif" font-size="14.00">aws_appautoscaling_target.ecs_target</text>
</g>
<!-- [root] aws_appautoscaling_policy.cpu (expand)&#45;&gt;[root] aws_appautoscaling_target.ecs_target (expand) -->
<g id="edge1" class="edge">
<title>[root] aws_appautoscaling_policy.cpu (expand)&#45;&gt;[root] aws_appautoscaling_target.ecs_target (expand)</title>
<path fill="none" stroke="black" d="M1891.62,-503.7C1897.14,-495.47 1903.85,-485.48 1909.93,-476.42"/>
<polygon fill="black" stroke="black" points="1912.85,-478.36 1915.52,-468.1 1907.04,-474.46 1912.85,-478.36"/>
</g>
<!-- [root] aws_ecs_service.main (expand) -->
<g id="node4" class="node">
<title>[root] aws_ecs_service.main (expand)</title>
<polygon fill="none" stroke="black" points="2199,-396 2027,-396 2027,-360 2199,-360 2199,-396"/>
<text text-anchor="middle" x="2113" y="-374.3" font-family="Times,serif" font-size="14.00">aws_ecs_service.main</text>
</g>
<!-- [root] aws_appautoscaling_target.ecs_target (expand)&#45;&gt;[root] aws_ecs_service.main (expand) -->
<g id="edge2" class="edge">
<title>[root] aws_appautoscaling_target.ecs_target (expand)&#45;&gt;[root] aws_ecs_service.main (expand)</title>
<path fill="none" stroke="black" d="M1972.5,-431.88C1998.38,-422.14 2030.97,-409.87 2058.24,-399.61"/>
<polygon fill="black" stroke="black" points="2059.52,-402.87 2067.65,-396.07 2057.06,-396.31 2059.52,-402.87"/>
</g>
<!-- [root] aws_cloudwatch_log_group.monitor&#45;inferencer (expand) -->
<g id="node3" class="node">
<title>[root] aws_cloudwatch_log_group.monitor&#45;inferencer (expand)</title>
<polygon fill="none" stroke="black" points="2364,-540 2016,-540 2016,-504 2364,-504 2364,-540"/>
<text text-anchor="middle" x="2190" y="-518.3" font-family="Times,serif" font-size="14.00">aws_cloudwatch_log_group.monitor&#45;inferencer</text>
</g>
<!-- [root] provider[&quot;registry.terraform.io/hashicorp/aws&quot;] -->
<g id="node11" class="node">
<title>[root] provider[&quot;registry.terraform.io/hashicorp/aws&quot;]</title>
<polygon fill="none" stroke="black" points="2428,-108 2102.74,-90 2428,-72 2753.26,-90 2428,-108"/>
<text text-anchor="middle" x="2428" y="-86.3" font-family="Times,serif" font-size="14.00">provider[&quot;registry.terraform.io/hashicorp/aws&quot;]</text>
</g>
<!-- [root] aws_cloudwatch_log_group.monitor&#45;inferencer (expand)&#45;&gt;[root] provider[&quot;registry.terraform.io/hashicorp/aws&quot;] -->
<g id="edge3" class="edge">
<title>[root] aws_cloudwatch_log_group.monitor&#45;inferencer (expand)&#45;&gt;[root] provider[&quot;registry.terraform.io/hashicorp/aws&quot;]</title>
<path fill="none" stroke="black" d="M2349.64,-503.97C2649.27,-471.48 3266,-401.82 3266,-379 3266,-379 3266,-379 3266,-233 3266,-163.81 2816.19,-119.78 2575.67,-101.19"/>
<polygon fill="black" stroke="black" points="2575.68,-97.68 2565.44,-100.4 2575.14,-104.66 2575.68,-97.68"/>
</g>
<!-- [root] aws_ecs_task_definition.main (expand) -->
<g id="node5" class="node">
<title>[root] aws_ecs_task_definition.main (expand)</title>
<polygon fill="none" stroke="black" points="2026.5,-324 1801.5,-324 1801.5,-288 2026.5,-288 2026.5,-324"/>
<text text-anchor="middle" x="1914" y="-302.3" font-family="Times,serif" font-size="14.00">aws_ecs_task_definition.main</text>
</g>
<!-- [root] aws_ecs_service.main (expand)&#45;&gt;[root] aws_ecs_task_definition.main (expand) -->
<g id="edge4" class="edge">
<title>[root] aws_ecs_service.main (expand)&#45;&gt;[root] aws_ecs_task_definition.main (expand)</title>
<path fill="none" stroke="black" d="M2064.57,-359.97C2036.77,-350.19 2001.66,-337.84 1972.35,-327.52"/>
<polygon fill="black" stroke="black" points="1973.24,-324.13 1962.64,-324.11 1970.92,-330.73 1973.24,-324.13"/>
</g>
<!-- [root] data.aws_ecs_cluster.inferencer (expand) -->
<g id="node8" class="node">
<title>[root] data.aws_ecs_cluster.inferencer (expand)</title>
<polygon fill="none" stroke="black" points="2893.5,-180 2650.5,-180 2650.5,-144 2893.5,-144 2893.5,-180"/>
<text text-anchor="middle" x="2772" y="-158.3" font-family="Times,serif" font-size="14.00">data.aws_ecs_cluster.inferencer</text>
</g>
<!-- [root] aws_ecs_service.main (expand)&#45;&gt;[root] data.aws_ecs_cluster.inferencer (expand) -->
<g id="edge5" class="edge">
<title>[root] aws_ecs_service.main (expand)&#45;&gt;[root] data.aws_ecs_cluster.inferencer (expand)</title>
<path fill="none" stroke="black" d="M2199.08,-373.65C2445.77,-363.16 3141.97,-327.1 3209,-252 3219.65,-240.06 3219.61,-227.98 3209,-216 3188.83,-193.24 3024.85,-178.3 2903.65,-170.25"/>
<polygon fill="black" stroke="black" points="2903.74,-166.74 2893.54,-169.58 2903.29,-173.73 2903.74,-166.74"/>
</g>
<!-- [root] var.service&#45;name -->
<g id="node31" class="node">
<title>[root] var.service&#45;name</title>
<polygon fill="none" stroke="black" points="2175.5,-324 2044.5,-324 2044.5,-288 2181.5,-288 2181.5,-318 2175.5,-324"/>
<polyline fill="none" stroke="black" points="2175.5,-324 2175.5,-318 "/>
<polyline fill="none" stroke="black" points="2181.5,-318 2175.5,-318 "/>
<text text-anchor="middle" x="2113" y="-302.3" font-family="Times,serif" font-size="14.00">var.service&#45;name</text>
</g>
<!-- [root] aws_ecs_service.main (expand)&#45;&gt;[root] var.service&#45;name -->
<g id="edge6" class="edge">
<title>[root] aws_ecs_service.main (expand)&#45;&gt;[root] var.service&#45;name</title>
<path fill="none" stroke="black" d="M2113,-359.7C2113,-351.98 2113,-342.71 2113,-334.11"/>
<polygon fill="black" stroke="black" points="2116.5,-334.1 2113,-324.1 2109.5,-334.1 2116.5,-334.1"/>
</g>
<!-- [root] var.soundmonitor_main_subnet -->
<g id="node32" class="node">
<title>[root] var.soundmonitor_main_subnet</title>
<polygon fill="none" stroke="black" points="2432.5,-324 2199.5,-324 2199.5,-288 2438.5,-288 2438.5,-318 2432.5,-324"/>
<polyline fill="none" stroke="black" points="2432.5,-324 2432.5,-318 "/>
<polyline fill="none" stroke="black" points="2438.5,-318 2432.5,-318 "/>
<text text-anchor="middle" x="2319" y="-302.3" font-family="Times,serif" font-size="14.00">var.soundmonitor_main_subnet</text>
</g>
<!-- [root] aws_ecs_service.main (expand)&#45;&gt;[root] var.soundmonitor_main_subnet -->
<g id="edge7" class="edge">
<title>[root] aws_ecs_service.main (expand)&#45;&gt;[root] var.soundmonitor_main_subnet</title>
<path fill="none" stroke="black" d="M2163.13,-359.97C2192.04,-350.14 2228.57,-337.73 2259,-327.39"/>
<polygon fill="black" stroke="black" points="2260.3,-330.64 2268.65,-324.11 2258.05,-324.01 2260.3,-330.64"/>
</g>
<!-- [root] aws_iam_role.monitor&#45;inferencer&#45;task&#45;execution&#45;role (expand) -->
<g id="node6" class="node">
<title>[root] aws_iam_role.monitor&#45;inferencer&#45;task&#45;execution&#45;role (expand)</title>
<polygon fill="none" stroke="black" points="559.5,-252 168.5,-252 168.5,-216 559.5,-216 559.5,-252"/>
<text text-anchor="middle" x="364" y="-230.3" font-family="Times,serif" font-size="14.00">aws_iam_role.monitor&#45;inferencer&#45;task&#45;execution&#45;role</text>
</g>
<!-- [root] aws_ecs_task_definition.main (expand)&#45;&gt;[root] aws_iam_role.monitor&#45;inferencer&#45;task&#45;execution&#45;role (expand) -->
<g id="edge8" class="edge">
<title>[root] aws_ecs_task_definition.main (expand)&#45;&gt;[root] aws_iam_role.monitor&#45;inferencer&#45;task&#45;execution&#45;role (expand)</title>
<path fill="none" stroke="black" d="M1801.44,-302.21C1572.02,-296.17 1033.55,-280.15 569.82,-252.03"/>
<polygon fill="black" stroke="black" points="569.76,-248.52 559.57,-251.41 569.34,-255.51 569.76,-248.52"/>
</g>
<!-- [root] var.aws_inferencer_key -->
<g id="node12" class="node">
<title>[root] var.aws_inferencer_key</title>
<polygon fill="none" stroke="black" points="2230,-252 2054,-252 2054,-216 2236,-216 2236,-246 2230,-252"/>
<polyline fill="none" stroke="black" points="2230,-252 2230,-246 "/>
<polyline fill="none" stroke="black" points="2236,-246 2230,-246 "/>
<text text-anchor="middle" x="2145" y="-230.3" font-family="Times,serif" font-size="14.00">var.aws_inferencer_key</text>
</g>
<!-- [root] aws_ecs_task_definition.main (expand)&#45;&gt;[root] var.aws_inferencer_key -->
<g id="edge9" class="edge">
<title>[root] aws_ecs_task_definition.main (expand)&#45;&gt;[root] var.aws_inferencer_key</title>
<path fill="none" stroke="black" d="M1970.21,-287.97C2002.91,-278.06 2044.3,-265.51 2078.6,-255.12"/>
<polygon fill="black" stroke="black" points="2079.98,-258.36 2088.53,-252.11 2077.95,-251.66 2079.98,-258.36"/>
</g>
<!-- [root] var.aws_inferencer_secret -->
<g id="node13" class="node">
<title>[root] var.aws_inferencer_secret</title>
<polygon fill="none" stroke="black" points="2450,-252 2254,-252 2254,-216 2456,-216 2456,-246 2450,-252"/>
<polyline fill="none" stroke="black" points="2450,-252 2450,-246 "/>
<polyline fill="none" stroke="black" points="2456,-246 2450,-246 "/>
<text text-anchor="middle" x="2355" y="-230.3" font-family="Times,serif" font-size="14.00">var.aws_inferencer_secret</text>
</g>
<!-- [root] aws_ecs_task_definition.main (expand)&#45;&gt;[root] var.aws_inferencer_secret -->
<g id="edge10" class="edge">
<title>[root] aws_ecs_task_definition.main (expand)&#45;&gt;[root] var.aws_inferencer_secret</title>
<path fill="none" stroke="black" d="M2021.32,-287.97C2088.75,-277.26 2175.56,-263.48 2243.73,-252.66"/>
<polygon fill="black" stroke="black" points="2244.32,-256.11 2253.65,-251.09 2243.23,-249.2 2244.32,-256.11"/>
</g>
<!-- [root] var.cpu -->
<g id="node18" class="node">
<title>[root] var.cpu</title>
<polygon fill="none" stroke="black" points="2536,-252 2474,-252 2474,-216 2542,-216 2542,-246 2536,-252"/>
<polyline fill="none" stroke="black" points="2536,-252 2536,-246 "/>
<polyline fill="none" stroke="black" points="2542,-246 2536,-246 "/>
<text text-anchor="middle" x="2508" y="-230.3" font-family="Times,serif" font-size="14.00">var.cpu</text>
</g>
<!-- [root] aws_ecs_task_definition.main (expand)&#45;&gt;[root] var.cpu -->
<g id="edge11" class="edge">
<title>[root] aws_ecs_task_definition.main (expand)&#45;&gt;[root] var.cpu</title>
<path fill="none" stroke="black" d="M2026.69,-288.96C2029.49,-288.63 2032.26,-288.31 2035,-288 2222.33,-267.02 2276.43,-294.74 2463.66,-251.92"/>
<polygon fill="black" stroke="black" points="2464.6,-255.3 2473.55,-249.63 2463.01,-248.48 2464.6,-255.3"/>
</g>
<!-- [root] var.device_selector -->
<g id="node19" class="node">
<title>[root] var.device_selector</title>
<polygon fill="none" stroke="black" points="2706,-252 2560,-252 2560,-216 2712,-216 2712,-246 2706,-252"/>
<polyline fill="none" stroke="black" points="2706,-252 2706,-246 "/>
<polyline fill="none" stroke="black" points="2712,-246 2706,-246 "/>
<text text-anchor="middle" x="2636" y="-230.3" font-family="Times,serif" font-size="14.00">var.device_selector</text>
</g>
<!-- [root] aws_ecs_task_definition.main (expand)&#45;&gt;[root] var.device_selector -->
<g id="edge12" class="edge">
<title>[root] aws_ecs_task_definition.main (expand)&#45;&gt;[root] var.device_selector</title>
<path fill="none" stroke="black" d="M2026.68,-288.91C2029.48,-288.59 2032.26,-288.29 2035,-288 2260.4,-264.33 2321.44,-282.09 2549.68,-252.08"/>
<polygon fill="black" stroke="black" points="2550.17,-255.54 2559.62,-250.75 2549.25,-248.6 2550.17,-255.54"/>
</g>
<!-- [root] var.ecr_image_repo -->
<g id="node20" class="node">
<title>[root] var.ecr_image_repo</title>
<polygon fill="none" stroke="black" points="2879.5,-252 2730.5,-252 2730.5,-216 2885.5,-216 2885.5,-246 2879.5,-252"/>
<polyline fill="none" stroke="black" points="2879.5,-252 2879.5,-246 "/>
<polyline fill="none" stroke="black" points="2885.5,-246 2879.5,-246 "/>
<text text-anchor="middle" x="2808" y="-230.3" font-family="Times,serif" font-size="14.00">var.ecr_image_repo</text>
</g>
<!-- [root] aws_ecs_task_definition.main (expand)&#45;&gt;[root] var.ecr_image_repo -->
<g id="edge13" class="edge">
<title>[root] aws_ecs_task_definition.main (expand)&#45;&gt;[root] var.ecr_image_repo</title>
<path fill="none" stroke="black" d="M2026.68,-288.84C2029.48,-288.55 2032.25,-288.26 2035,-288 2335.64,-259.05 2416.26,-288.72 2720.31,-251.97"/>
<polygon fill="black" stroke="black" points="2720.8,-255.43 2730.3,-250.74 2719.95,-248.48 2720.8,-255.43"/>
</g>
<!-- [root] var.ecr_image_tag -->
<g id="node21" class="node">
<title>[root] var.ecr_image_tag</title>
<polygon fill="none" stroke="black" points="3044,-252 2904,-252 2904,-216 3050,-216 3050,-246 3044,-252"/>
<polyline fill="none" stroke="black" points="3044,-252 3044,-246 "/>
<polyline fill="none" stroke="black" points="3050,-246 3044,-246 "/>
<text text-anchor="middle" x="2977" y="-230.3" font-family="Times,serif" font-size="14.00">var.ecr_image_tag</text>
</g>
<!-- [root] aws_ecs_task_definition.main (expand)&#45;&gt;[root] var.ecr_image_tag -->
<g id="edge14" class="edge">
<title>[root] aws_ecs_task_definition.main (expand)&#45;&gt;[root] var.ecr_image_tag</title>
<path fill="none" stroke="black" d="M2026.67,-288.8C2029.47,-288.52 2032.25,-288.25 2035,-288 2412.2,-253.68 2512.96,-297.7 2893.59,-251.9"/>
<polygon fill="black" stroke="black" points="2894.28,-255.34 2903.78,-250.66 2893.43,-248.39 2894.28,-255.34"/>
</g>
<!-- [root] var.family&#45;name -->
<g id="node22" class="node">
<title>[root] var.family&#45;name</title>
<polygon fill="none" stroke="black" points="3193.5,-252 3068.5,-252 3068.5,-216 3199.5,-216 3199.5,-246 3193.5,-252"/>
<polyline fill="none" stroke="black" points="3193.5,-252 3193.5,-246 "/>
<polyline fill="none" stroke="black" points="3199.5,-246 3193.5,-246 "/>
<text text-anchor="middle" x="3134" y="-230.3" font-family="Times,serif" font-size="14.00">var.family&#45;name</text>
</g>
<!-- [root] aws_ecs_task_definition.main (expand)&#45;&gt;[root] var.family&#45;name -->
<g id="edge15" class="edge">
<title>[root] aws_ecs_task_definition.main (expand)&#45;&gt;[root] var.family&#45;name</title>
<path fill="none" stroke="black" d="M2026.67,-288.78C2029.47,-288.5 2032.25,-288.24 2035,-288 2485.33,-248.56 2605.64,-309.68 3058.2,-251.93"/>
<polygon fill="black" stroke="black" points="3058.8,-255.38 3068.28,-250.63 3057.91,-248.44 3058.8,-255.38"/>
</g>
<!-- [root] var.kafka_audio_upload_event -->
<g id="node23" class="node">
<title>[root] var.kafka_audio_upload_event</title>
<polygon fill="none" stroke="black" points="800,-252 578,-252 578,-216 806,-216 806,-246 800,-252"/>
<polyline fill="none" stroke="black" points="800,-252 800,-246 "/>
<polyline fill="none" stroke="black" points="806,-246 800,-246 "/>
<text text-anchor="middle" x="692" y="-230.3" font-family="Times,serif" font-size="14.00">var.kafka_audio_upload_event</text>
</g>
<!-- [root] aws_ecs_task_definition.main (expand)&#45;&gt;[root] var.kafka_audio_upload_event -->
<g id="edge16" class="edge">
<title>[root] aws_ecs_task_definition.main (expand)&#45;&gt;[root] var.kafka_audio_upload_event</title>
<path fill="none" stroke="black" d="M1801.44,-302.88C1603.98,-298.43 1182.18,-285.68 816.2,-252.06"/>
<polygon fill="black" stroke="black" points="816.49,-248.57 806.21,-251.14 815.84,-255.54 816.49,-248.57"/>
</g>
<!-- [root] var.kafka_encode_format -->
<g id="node24" class="node">
<title>[root] var.kafka_encode_format</title>
<polygon fill="none" stroke="black" points="1011.5,-252 824.5,-252 824.5,-216 1017.5,-216 1017.5,-246 1011.5,-252"/>
<polyline fill="none" stroke="black" points="1011.5,-252 1011.5,-246 "/>
<polyline fill="none" stroke="black" points="1017.5,-246 1011.5,-246 "/>
<text text-anchor="middle" x="921" y="-230.3" font-family="Times,serif" font-size="14.00">var.kafka_encode_format</text>
</g>
<!-- [root] aws_ecs_task_definition.main (expand)&#45;&gt;[root] var.kafka_encode_format -->
<g id="edge17" class="edge">
<title>[root] aws_ecs_task_definition.main (expand)&#45;&gt;[root] var.kafka_encode_format</title>
<path fill="none" stroke="black" d="M1801.33,-301.85C1634.56,-296.4 1312.04,-282.78 1027.8,-252.02"/>
<polygon fill="black" stroke="black" points="1028.03,-248.52 1017.71,-250.92 1027.27,-255.48 1028.03,-248.52"/>
</g>
<!-- [root] var.kafka_group_id -->
<g id="node25" class="node">
<title>[root] var.kafka_group_id</title>
<polygon fill="none" stroke="black" points="1180,-252 1036,-252 1036,-216 1186,-216 1186,-246 1180,-252"/>
<polyline fill="none" stroke="black" points="1180,-252 1180,-246 "/>
<polyline fill="none" stroke="black" points="1186,-246 1180,-246 "/>
<text text-anchor="middle" x="1111" y="-230.3" font-family="Times,serif" font-size="14.00">var.kafka_group_id</text>
</g>
<!-- [root] aws_ecs_task_definition.main (expand)&#45;&gt;[root] var.kafka_group_id -->
<g id="edge18" class="edge">
<title>[root] aws_ecs_task_definition.main (expand)&#45;&gt;[root] var.kafka_group_id</title>
<path fill="none" stroke="black" d="M1801.45,-301.1C1661.68,-295.26 1415.86,-281.74 1196.14,-252.05"/>
<polygon fill="black" stroke="black" points="1196.41,-248.56 1186.03,-250.67 1195.46,-255.49 1196.41,-248.56"/>
</g>
<!-- [root] var.kafka_inference_event -->
<g id="node26" class="node">
<title>[root] var.kafka_inference_event</title>
<polygon fill="none" stroke="black" points="1399.5,-252 1204.5,-252 1204.5,-216 1405.5,-216 1405.5,-246 1399.5,-252"/>
<polyline fill="none" stroke="black" points="1399.5,-252 1399.5,-246 "/>
<polyline fill="none" stroke="black" points="1405.5,-246 1399.5,-246 "/>
<text text-anchor="middle" x="1305" y="-230.3" font-family="Times,serif" font-size="14.00">var.kafka_inference_event</text>
</g>
<!-- [root] aws_ecs_task_definition.main (expand)&#45;&gt;[root] var.kafka_inference_event -->
<g id="edge19" class="edge">
<title>[root] aws_ecs_task_definition.main (expand)&#45;&gt;[root] var.kafka_inference_event</title>
<path fill="none" stroke="black" d="M1801.35,-294.58C1702.47,-285.07 1554.52,-269.98 1415.66,-252.05"/>
<polygon fill="black" stroke="black" points="1416.05,-248.57 1405.68,-250.76 1415.15,-255.51 1416.05,-248.57"/>
</g>
<!-- [root] var.kafka_server -->
<g id="node27" class="node">
<title>[root] var.kafka_server</title>
<polygon fill="none" stroke="black" points="1552,-252 1424,-252 1424,-216 1558,-216 1558,-246 1552,-252"/>
<polyline fill="none" stroke="black" points="1552,-252 1552,-246 "/>
<polyline fill="none" stroke="black" points="1558,-246 1552,-246 "/>
<text text-anchor="middle" x="1491" y="-230.3" font-family="Times,serif" font-size="14.00">var.kafka_server</text>
</g>
<!-- [root] aws_ecs_task_definition.main (expand)&#45;&gt;[root] var.kafka_server -->
<g id="edge20" class="edge">
<title>[root] aws_ecs_task_definition.main (expand)&#45;&gt;[root] var.kafka_server</title>
<path fill="none" stroke="black" d="M1801.15,-289.76C1735.72,-280.44 1651.55,-267.65 1568.01,-252.12"/>
<polygon fill="black" stroke="black" points="1568.56,-248.67 1558.09,-250.27 1567.27,-255.55 1568.56,-248.67"/>
</g>
<!-- [root] var.mapper_url -->
<g id="node28" class="node">
<title>[root] var.mapper_url</title>
<polygon fill="none" stroke="black" points="1695.5,-252 1576.5,-252 1576.5,-216 1701.5,-216 1701.5,-246 1695.5,-252"/>
<polyline fill="none" stroke="black" points="1695.5,-252 1695.5,-246 "/>
<polyline fill="none" stroke="black" points="1701.5,-246 1695.5,-246 "/>
<text text-anchor="middle" x="1639" y="-230.3" font-family="Times,serif" font-size="14.00">var.mapper_url</text>
</g>
<!-- [root] aws_ecs_task_definition.main (expand)&#45;&gt;[root] var.mapper_url -->
<g id="edge21" class="edge">
<title>[root] aws_ecs_task_definition.main (expand)&#45;&gt;[root] var.mapper_url</title>
<path fill="none" stroke="black" d="M1847.08,-287.97C1806.16,-277.55 1753.8,-264.22 1711.84,-253.54"/>
<polygon fill="black" stroke="black" points="1712.52,-250.1 1701.97,-251.03 1710.79,-256.89 1712.52,-250.1"/>
</g>
<!-- [root] var.memory -->
<g id="node29" class="node">
<title>[root] var.memory</title>
<polygon fill="none" stroke="black" points="1814.5,-252 1719.5,-252 1719.5,-216 1820.5,-216 1820.5,-246 1814.5,-252"/>
<polyline fill="none" stroke="black" points="1814.5,-252 1814.5,-246 "/>
<polyline fill="none" stroke="black" points="1820.5,-246 1814.5,-246 "/>
<text text-anchor="middle" x="1770" y="-230.3" font-family="Times,serif" font-size="14.00">var.memory</text>
</g>
<!-- [root] aws_ecs_task_definition.main (expand)&#45;&gt;[root] var.memory -->
<g id="edge22" class="edge">
<title>[root] aws_ecs_task_definition.main (expand)&#45;&gt;[root] var.memory</title>
<path fill="none" stroke="black" d="M1878.77,-287.88C1859.42,-278.47 1835.23,-266.71 1814.57,-256.67"/>
<polygon fill="black" stroke="black" points="1815.89,-253.41 1805.36,-252.19 1812.83,-259.71 1815.89,-253.41"/>
</g>
<!-- [root] var.records_bucket_name -->
<g id="node30" class="node">
<title>[root] var.records_bucket_name</title>
<polygon fill="none" stroke="black" points="2029.5,-252 1838.5,-252 1838.5,-216 2035.5,-216 2035.5,-246 2029.5,-252"/>
<polyline fill="none" stroke="black" points="2029.5,-252 2029.5,-246 "/>
<polyline fill="none" stroke="black" points="2035.5,-246 2029.5,-246 "/>
<text text-anchor="middle" x="1937" y="-230.3" font-family="Times,serif" font-size="14.00">var.records_bucket_name</text>
</g>
<!-- [root] aws_ecs_task_definition.main (expand)&#45;&gt;[root] var.records_bucket_name -->
<g id="edge23" class="edge">
<title>[root] aws_ecs_task_definition.main (expand)&#45;&gt;[root] var.records_bucket_name</title>
<path fill="none" stroke="black" d="M1919.69,-287.7C1922.25,-279.9 1925.33,-270.51 1928.18,-261.83"/>
<polygon fill="black" stroke="black" points="1931.58,-262.7 1931.38,-252.1 1924.93,-260.51 1931.58,-262.7"/>
</g>
<!-- [root] data.aws_iam_policy_document.ecs&#45;task&#45;assume&#45;role (expand) -->
<g id="node10" class="node">
<title>[root] data.aws_iam_policy_document.ecs&#45;task&#45;assume&#45;role (expand)</title>
<polygon fill="none" stroke="black" points="1248,-180 856,-180 856,-144 1248,-144 1248,-180"/>
<text text-anchor="middle" x="1052" y="-158.3" font-family="Times,serif" font-size="14.00">data.aws_iam_policy_document.ecs&#45;task&#45;assume&#45;role</text>
</g>
<!-- [root] aws_iam_role.monitor&#45;inferencer&#45;task&#45;execution&#45;role (expand)&#45;&gt;[root] data.aws_iam_policy_document.ecs&#45;task&#45;assume&#45;role (expand) -->
<g id="edge24" class="edge">
<title>[root] aws_iam_role.monitor&#45;inferencer&#45;task&#45;execution&#45;role (expand)&#45;&gt;[root] data.aws_iam_policy_document.ecs&#45;task&#45;assume&#45;role (expand)</title>
<path fill="none" stroke="black" d="M531.42,-215.97C635.37,-205.39 768.81,-191.81 874.57,-181.05"/>
<polygon fill="black" stroke="black" points="875.13,-184.51 884.72,-180.02 874.42,-177.55 875.13,-184.51"/>
</g>
<!-- [root] aws_iam_role_policy_attachment.ecs&#45;task&#45;execution&#45;role (expand) -->
<g id="node7" class="node">
<title>[root] aws_iam_role_policy_attachment.ecs&#45;task&#45;execution&#45;role (expand)</title>
<polygon fill="none" stroke="black" points="1030.5,-540 613.5,-540 613.5,-504 1030.5,-504 1030.5,-540"/>
<text text-anchor="middle" x="822" y="-518.3" font-family="Times,serif" font-size="14.00">aws_iam_role_policy_attachment.ecs&#45;task&#45;execution&#45;role</text>
</g>
<!-- [root] aws_iam_role_policy_attachment.ecs&#45;task&#45;execution&#45;role (expand)&#45;&gt;[root] aws_iam_role.monitor&#45;inferencer&#45;task&#45;execution&#45;role (expand) -->
<g id="edge25" class="edge">
<title>[root] aws_iam_role_policy_attachment.ecs&#45;task&#45;execution&#45;role (expand)&#45;&gt;[root] aws_iam_role.monitor&#45;inferencer&#45;task&#45;execution&#45;role (expand)</title>
<path fill="none" stroke="black" d="M794.72,-503.97C716.06,-454.85 488.76,-312.91 400.06,-257.52"/>
<polygon fill="black" stroke="black" points="401.76,-254.45 391.42,-252.13 398.05,-260.39 401.76,-254.45"/>
</g>
<!-- [root] data.aws_iam_policy.ecs&#45;task&#45;execution&#45;role (expand) -->
<g id="node9" class="node">
<title>[root] data.aws_iam_policy.ecs&#45;task&#45;execution&#45;role (expand)</title>
<polygon fill="none" stroke="black" points="328,-396 0,-396 0,-360 328,-360 328,-396"/>
<text text-anchor="middle" x="164" y="-374.3" font-family="Times,serif" font-size="14.00">data.aws_iam_policy.ecs&#45;task&#45;execution&#45;role</text>
</g>
<!-- [root] aws_iam_role_policy_attachment.ecs&#45;task&#45;execution&#45;role (expand)&#45;&gt;[root] data.aws_iam_policy.ecs&#45;task&#45;execution&#45;role (expand) -->
<g id="edge26" class="edge">
<title>[root] aws_iam_role_policy_attachment.ecs&#45;task&#45;execution&#45;role (expand)&#45;&gt;[root] data.aws_iam_policy.ecs&#45;task&#45;execution&#45;role (expand)</title>
<path fill="none" stroke="black" d="M742.96,-503.94C619.57,-477.31 381.98,-426.04 252.84,-398.17"/>
<polygon fill="black" stroke="black" points="253.49,-394.73 242.97,-396.04 252.01,-401.57 253.49,-394.73"/>
</g>
<!-- [root] data.aws_ecs_cluster.inferencer (expand)&#45;&gt;[root] provider[&quot;registry.terraform.io/hashicorp/aws&quot;] -->
<g id="edge27" class="edge">
<title>[root] data.aws_ecs_cluster.inferencer (expand)&#45;&gt;[root] provider[&quot;registry.terraform.io/hashicorp/aws&quot;]</title>
<path fill="none" stroke="black" d="M2688.29,-143.97C2631.93,-132.5 2558.23,-117.5 2503.64,-106.39"/>
<polygon fill="black" stroke="black" points="2504.18,-102.93 2493.68,-104.37 2502.78,-109.79 2504.18,-102.93"/>
</g>
<!-- [root] data.aws_iam_policy.ecs&#45;task&#45;execution&#45;role (expand)&#45;&gt;[root] provider[&quot;registry.terraform.io/hashicorp/aws&quot;] -->
<g id="edge28" class="edge">
<title>[root] data.aws_iam_policy.ecs&#45;task&#45;execution&#45;role (expand)&#45;&gt;[root] provider[&quot;registry.terraform.io/hashicorp/aws&quot;]</title>
<path fill="none" stroke="black" d="M156.68,-359.83C144.06,-327.25 122.88,-256.1 159,-216 225.99,-141.63 1612.94,-106.62 2184.79,-95.3"/>
<polygon fill="black" stroke="black" points="2184.88,-98.8 2194.81,-95.1 2184.74,-91.8 2184.88,-98.8"/>
</g>
<!-- [root] data.aws_iam_policy_document.ecs&#45;task&#45;assume&#45;role (expand)&#45;&gt;[root] provider[&quot;registry.terraform.io/hashicorp/aws&quot;] -->
<g id="edge29" class="edge">
<title>[root] data.aws_iam_policy_document.ecs&#45;task&#45;assume&#45;role (expand)&#45;&gt;[root] provider[&quot;registry.terraform.io/hashicorp/aws&quot;]</title>
<path fill="none" stroke="black" d="M1248.05,-151.03C1518.52,-137.27 2001.65,-112.69 2257.75,-99.66"/>
<polygon fill="black" stroke="black" points="2258.09,-103.15 2267.89,-99.14 2257.73,-96.16 2258.09,-103.15"/>
</g>
<!-- [root] var.aws_provider_key -->
<g id="node14" class="node">
<title>[root] var.aws_provider_key</title>
<polygon fill="none" stroke="black" points="2309,-36 2145,-36 2145,0 2315,0 2315,-30 2309,-36"/>
<polyline fill="none" stroke="black" points="2309,-36 2309,-30 "/>
<polyline fill="none" stroke="black" points="2315,-30 2309,-30 "/>
<text text-anchor="middle" x="2230" y="-14.3" font-family="Times,serif" font-size="14.00">var.aws_provider_key</text>
</g>
<!-- [root] provider[&quot;registry.terraform.io/hashicorp/aws&quot;]&#45;&gt;[root] var.aws_provider_key -->
<g id="edge37" class="edge">
<title>[root] provider[&quot;registry.terraform.io/hashicorp/aws&quot;]&#45;&gt;[root] var.aws_provider_key</title>
<path fill="none" stroke="black" d="M2386.01,-74.15C2357.41,-64.04 2319.18,-50.53 2287.73,-39.41"/>
<polygon fill="black" stroke="black" points="2288.79,-36.07 2278.2,-36.04 2286.46,-42.67 2288.79,-36.07"/>
</g>
<!-- [root] var.aws_provider_secret -->
<g id="node15" class="node">
<title>[root] var.aws_provider_secret</title>
<polygon fill="none" stroke="black" points="2516.5,-36 2333.5,-36 2333.5,0 2522.5,0 2522.5,-30 2516.5,-36"/>
<polyline fill="none" stroke="black" points="2516.5,-36 2516.5,-30 "/>
<polyline fill="none" stroke="black" points="2522.5,-30 2516.5,-30 "/>
<text text-anchor="middle" x="2428" y="-14.3" font-family="Times,serif" font-size="14.00">var.aws_provider_secret</text>
</g>
<!-- [root] provider[&quot;registry.terraform.io/hashicorp/aws&quot;]&#45;&gt;[root] var.aws_provider_secret -->
<g id="edge38" class="edge">
<title>[root] provider[&quot;registry.terraform.io/hashicorp/aws&quot;]&#45;&gt;[root] var.aws_provider_secret</title>
<path fill="none" stroke="black" d="M2428,-71.7C2428,-63.98 2428,-54.71 2428,-46.11"/>
<polygon fill="black" stroke="black" points="2431.5,-46.1 2428,-36.1 2424.5,-46.1 2431.5,-46.1"/>
</g>
<!-- [root] var.aws_region -->
<g id="node16" class="node">
<title>[root] var.aws_region</title>
<polygon fill="none" stroke="black" points="2657.5,-36 2540.5,-36 2540.5,0 2663.5,0 2663.5,-30 2657.5,-36"/>
<polyline fill="none" stroke="black" points="2657.5,-36 2657.5,-30 "/>
<polyline fill="none" stroke="black" points="2663.5,-30 2657.5,-30 "/>
<text text-anchor="middle" x="2602" y="-14.3" font-family="Times,serif" font-size="14.00">var.aws_region</text>
</g>
<!-- [root] provider[&quot;registry.terraform.io/hashicorp/aws&quot;]&#45;&gt;[root] var.aws_region -->
<g id="edge39" class="edge">
<title>[root] provider[&quot;registry.terraform.io/hashicorp/aws&quot;]&#45;&gt;[root] var.aws_region</title>
<path fill="none" stroke="black" d="M2465.33,-73.98C2490.07,-64.03 2522.87,-50.83 2550.14,-39.86"/>
<polygon fill="black" stroke="black" points="2551.56,-43.06 2559.53,-36.08 2548.95,-36.57 2551.56,-43.06"/>
</g>
<!-- [root] var.cluster&#45;name -->
<g id="node17" class="node">
<title>[root] var.cluster&#45;name</title>
<polygon fill="none" stroke="black" points="2512,-540 2382,-540 2382,-504 2518,-504 2518,-534 2512,-540"/>
<polyline fill="none" stroke="black" points="2512,-540 2512,-534 "/>
<polyline fill="none" stroke="black" points="2518,-534 2512,-534 "/>
<text text-anchor="middle" x="2450" y="-518.3" font-family="Times,serif" font-size="14.00">var.cluster&#45;name</text>
</g>
<!-- [root] meta.count&#45;boundary (EachMode fixup) -->
<g id="node33" class="node">
<title>[root] meta.count&#45;boundary (EachMode fixup)</title>
<ellipse fill="none" stroke="black" cx="2190" cy="-594" rx="222.86" ry="18"/>
<text text-anchor="middle" x="2190" y="-590.3" font-family="Times,serif" font-size="14.00">[root] meta.count&#45;boundary (EachMode fixup)</text>
</g>
<!-- [root] meta.count&#45;boundary (EachMode fixup)&#45;&gt;[root] aws_appautoscaling_policy.cpu (expand) -->
<g id="edge30" class="edge">
<title>[root] meta.count&#45;boundary (EachMode fixup)&#45;&gt;[root] aws_appautoscaling_policy.cpu (expand)</title>
<path fill="none" stroke="black" d="M2118.49,-576.85C2072.82,-566.54 2013.37,-553.12 1965.25,-542.25"/>
<polygon fill="black" stroke="black" points="1966,-538.83 1955.47,-540.04 1964.46,-545.66 1966,-538.83"/>
</g>
<!-- [root] meta.count&#45;boundary (EachMode fixup)&#45;&gt;[root] aws_cloudwatch_log_group.monitor&#45;inferencer (expand) -->
<g id="edge31" class="edge">
<title>[root] meta.count&#45;boundary (EachMode fixup)&#45;&gt;[root] aws_cloudwatch_log_group.monitor&#45;inferencer (expand)</title>
<path fill="none" stroke="black" d="M2190,-575.7C2190,-567.98 2190,-558.71 2190,-550.11"/>
<polygon fill="black" stroke="black" points="2193.5,-550.1 2190,-540.1 2186.5,-550.1 2193.5,-550.1"/>
</g>
<!-- [root] meta.count&#45;boundary (EachMode fixup)&#45;&gt;[root] aws_iam_role_policy_attachment.ecs&#45;task&#45;execution&#45;role (expand) -->
<g id="edge32" class="edge">
<title>[root] meta.count&#45;boundary (EachMode fixup)&#45;&gt;[root] aws_iam_role_policy_attachment.ecs&#45;task&#45;execution&#45;role (expand)</title>
<path fill="none" stroke="black" d="M2034.67,-581.05C2009.06,-579.24 1982.79,-577.49 1958,-576 1639.15,-556.88 1269.61,-540.76 1040.79,-531.48"/>
<polygon fill="black" stroke="black" points="1040.81,-527.98 1030.68,-531.08 1040.53,-534.98 1040.81,-527.98"/>
</g>
<!-- [root] meta.count&#45;boundary (EachMode fixup)&#45;&gt;[root] var.cluster&#45;name -->
<g id="edge33" class="edge">
<title>[root] meta.count&#45;boundary (EachMode fixup)&#45;&gt;[root] var.cluster&#45;name</title>
<path fill="none" stroke="black" d="M2250.63,-576.68C2288.34,-566.52 2337.05,-553.41 2376.89,-542.68"/>
<polygon fill="black" stroke="black" points="2377.81,-546.06 2386.55,-540.08 2375.99,-539.3 2377.81,-546.06"/>
</g>
<!-- [root] provider[&quot;registry.terraform.io/hashicorp/aws&quot;] (close) -->
<g id="node34" class="node">
<title>[root] provider[&quot;registry.terraform.io/hashicorp/aws&quot;] (close)</title>
<ellipse fill="none" stroke="black" cx="1657" cy="-594" rx="291.65" ry="18"/>
<text text-anchor="middle" x="1657" y="-590.3" font-family="Times,serif" font-size="14.00">[root] provider[&quot;registry.terraform.io/hashicorp/aws&quot;] (close)</text>
</g>
<!-- [root] provider[&quot;registry.terraform.io/hashicorp/aws&quot;] (close)&#45;&gt;[root] aws_appautoscaling_policy.cpu (expand) -->
<g id="edge34" class="edge">
<title>[root] provider[&quot;registry.terraform.io/hashicorp/aws&quot;] (close)&#45;&gt;[root] aws_appautoscaling_policy.cpu (expand)</title>
<path fill="none" stroke="black" d="M1710.41,-576.23C1742.08,-566.29 1782.41,-553.63 1815.8,-543.15"/>
<polygon fill="black" stroke="black" points="1816.98,-546.45 1825.47,-540.12 1814.88,-539.77 1816.98,-546.45"/>
</g>
<!-- [root] provider[&quot;registry.terraform.io/hashicorp/aws&quot;] (close)&#45;&gt;[root] aws_cloudwatch_log_group.monitor&#45;inferencer (expand) -->
<g id="edge35" class="edge">
<title>[root] provider[&quot;registry.terraform.io/hashicorp/aws&quot;] (close)&#45;&gt;[root] aws_cloudwatch_log_group.monitor&#45;inferencer (expand)</title>
<path fill="none" stroke="black" d="M1774.96,-577.51C1856.22,-566.84 1964.55,-552.61 2050.16,-541.37"/>
<polygon fill="black" stroke="black" points="2050.76,-544.82 2060.22,-540.04 2049.85,-537.88 2050.76,-544.82"/>
</g>
<!-- [root] provider[&quot;registry.terraform.io/hashicorp/aws&quot;] (close)&#45;&gt;[root] aws_iam_role_policy_attachment.ecs&#45;task&#45;execution&#45;role (expand) -->
<g id="edge36" class="edge">
<title>[root] provider[&quot;registry.terraform.io/hashicorp/aws&quot;] (close)&#45;&gt;[root] aws_iam_role_policy_attachment.ecs&#45;task&#45;execution&#45;role (expand)</title>
<path fill="none" stroke="black" d="M1491.53,-579.13C1360.71,-568.16 1177.14,-552.77 1035.29,-540.88"/>
<polygon fill="black" stroke="black" points="1035.41,-537.38 1025.15,-540.03 1034.83,-544.35 1035.41,-537.38"/>
</g>
<!-- [root] root -->
<g id="node35" class="node">
<title>[root] root</title>
<ellipse fill="none" stroke="black" cx="1923" cy="-666" rx="58.49" ry="18"/>
<text text-anchor="middle" x="1923" y="-662.3" font-family="Times,serif" font-size="14.00">[root] root</text>
</g>
<!-- [root] root&#45;&gt;[root] meta.count&#45;boundary (EachMode fixup) -->
<g id="edge40" class="edge">
<title>[root] root&#45;&gt;[root] meta.count&#45;boundary (EachMode fixup)</title>
<path fill="none" stroke="black" d="M1965.9,-653.75C2006.86,-643.01 2069.36,-626.63 2117.96,-613.89"/>
<polygon fill="black" stroke="black" points="2119.01,-617.23 2127.8,-611.31 2117.24,-610.46 2119.01,-617.23"/>
</g>
<!-- [root] root&#45;&gt;[root] provider[&quot;registry.terraform.io/hashicorp/aws&quot;] (close) -->
<g id="edge41" class="edge">
<title>[root] root&#45;&gt;[root] provider[&quot;registry.terraform.io/hashicorp/aws&quot;] (close)</title>
<path fill="none" stroke="black" d="M1879.97,-653.68C1839.46,-643.01 1777.98,-626.84 1729.83,-614.17"/>
<polygon fill="black" stroke="black" points="1730.64,-610.76 1720.08,-611.6 1728.86,-617.53 1730.64,-610.76"/>
</g>
</g>
</svg>
